<?xml version="1.0" encoding="UTF-8"?> <!-- Generator: Adobe Illustrator 16.0.0, SVG Export Plug-In . SVG Version: 6.00 Build 0) --> <svg xmlns="http://www.w3.org/2000/svg" xmlns:xlink="http://www.w3.org/1999/xlink" id="Layer_1" x="0px" y="0px" width="329.924px" height="65.57px" viewBox="0 0 329.924 65.57" xml:space="preserve"> <path fill="#566D9C" d="M50.035,18.343c-2.001,2.002-4.706,3.014-7.33,2.965h-9.507l7.843-7.844c1.999-2,4.712-3.027,7.332-2.982 h9.523L50.035,18.343L50.035,18.343z"></path> <path fill="#447AA2" d="M40.502,11.654c-0.733,2.735-2.57,4.962-4.866,6.232l-8.232,4.754l2.871-10.714 c0.73-2.731,2.566-4.979,4.857-6.252l8.249-4.759L40.502,11.654L40.502,11.654z"></path> <path fill="#3981A5" d="M28.902,10.626c0.732,2.734,0.257,5.583-1.096,7.831l-4.754,8.233L20.18,15.977 c-0.73-2.731-0.266-5.596,1.083-7.844l4.762-8.247L28.902,10.626L28.902,10.626z"></path> <path fill="#3088A8" d="M18.342,15.536c2.002,2.003,3.013,4.707,2.965,7.332v9.507l-7.843-7.844c-1.999-2-3.028-4.714-2.984-7.333 V7.674L18.342,15.536L18.342,15.536z"></path> <path fill="#2592AB" d="M11.653,25.069c2.733,0.732,4.962,2.57,6.234,4.865l4.753,8.233l-10.714-2.87 c-2.73-0.732-4.978-2.569-6.25-4.859l-4.761-8.247L11.653,25.069L11.653,25.069z"></path> <path fill="#1D95AD" d="M10.625,36.668c2.735-0.732,5.584-0.254,7.833,1.099l8.233,4.752l-10.715,2.872 c-2.73,0.73-5.595,0.266-7.842-1.083l-8.247-4.763L10.625,36.668L10.625,36.668z"></path> <path fill="#139DB0" d="M15.535,47.229c2.002-2.002,4.708-3.015,7.33-2.965h9.509l-7.844,7.843c-2,1.999-4.712,3.028-7.333,2.982 H7.674L15.535,47.229L15.535,47.229z"></path> <path fill="#7C5191" d="M25.069,53.918c0.732-2.735,2.57-4.963,4.865-6.233l8.233-4.754l-2.871,10.714 c-0.731,2.73-2.567,4.979-4.858,6.25l-8.247,4.762L25.069,53.918L25.069,53.918z"></path> <path fill="#785491" d="M36.668,54.946c-0.733-2.736-0.257-5.583,1.095-7.831l4.755-8.232l2.872,10.713 c0.731,2.732,0.266,5.596-1.083,7.844l-4.761,8.245L36.668,54.946L36.668,54.946z"></path> <path fill="#715994" d="M47.228,50.035c-2.001-2.001-3.014-4.706-2.965-7.33v-9.509l7.843,7.845 c1.998,1.998,3.028,4.713,2.984,7.332v9.524L47.228,50.035L47.228,50.035z"></path> <path fill="#6B5E95" d="M53.917,40.503c-2.734-0.731-4.963-2.57-6.233-4.865l-4.754-8.233l10.715,2.869 c2.729,0.733,4.978,2.569,6.249,4.86l4.761,8.247L53.917,40.503L53.917,40.503z"></path> <path fill="#5F679A" d="M54.944,28.904c-2.732,0.732-5.583,0.256-7.831-1.098l-8.232-4.753l10.714-2.872 c2.73-0.732,5.597-0.266,7.842,1.082l8.248,4.764L54.944,28.904L54.944,28.904z"></path> <g> <g> <path fill="#444444" d="M96.229,29.242c0,4.651-3.692,8.345-8.486,8.345h-4.368v8.169h-4.902v-24.86h9.27 C92.537,20.896,96.229,24.591,96.229,29.242z M91.364,29.242c0-2.166-1.526-3.764-3.621-3.764h-4.368v7.528h4.368 C89.838,33.007,91.364,31.373,91.364,29.242z"></path> <path fill="#444444" d="M109.153,27.646v5.112c-2.379-0.283-5.398,0.782-5.398,4.511v8.487h-4.581V27.999h4.581v3.054 C104.679,28.639,106.916,27.646,109.153,27.646z"></path> <path fill="#444444" d="M129.571,27.999v17.757h-4.582v-2.097c-1.279,1.6-3.196,2.594-5.789,2.594 c-4.723,0-8.629-4.085-8.629-9.376s3.907-9.375,8.629-9.375c2.593,0,4.51,0.995,5.789,2.593v-2.096H129.571z M124.989,36.877 c0-2.982-2.096-5.007-4.936-5.007c-2.806,0-4.902,2.023-4.902,5.007c0,2.982,2.096,5.008,4.902,5.008 C122.894,41.885,124.989,39.86,124.989,36.877z"></path> <path fill="#444444" d="M133.153,36.877c0-5.291,3.976-9.375,9.375-9.375c3.48,0,6.498,1.847,7.954,4.582l-3.941,2.308 c-0.71-1.457-2.239-2.379-4.05-2.379c-2.734,0-4.757,2.023-4.757,4.864c0,2.806,2.023,4.829,4.757,4.829 c1.848,0,3.375-0.888,4.084-2.344l3.978,2.272c-1.527,2.771-4.545,4.617-8.025,4.617 C137.129,46.253,133.153,42.168,133.153,36.877z"></path> <path fill="#444444" d="M159.464,32.403v7.387c0,1.917,1.385,1.954,4.013,1.811v4.156c-6.428,0.71-8.594-1.172-8.594-5.967v-7.387 h-3.09v-4.403h3.09v-3.586l4.581-1.386v4.972h4.013v4.403H159.464z"></path> <path fill="#444444" d="M166.528,23.063c0-1.525,1.279-2.84,2.806-2.84c1.562,0,2.841,1.314,2.841,2.84 c0,1.528-1.277,2.806-2.841,2.806C167.808,25.868,166.528,24.591,166.528,23.063z M167.062,27.999h4.58v17.757h-4.58V27.999z"></path> <path fill="#444444" d="M175.263,36.877c0-5.291,3.979-9.375,9.375-9.375c3.48,0,6.498,1.847,7.955,4.582l-3.943,2.308 c-0.709-1.457-2.235-2.379-4.047-2.379c-2.733,0-4.759,2.023-4.759,4.864c0,2.806,2.024,4.829,4.759,4.829 c1.847,0,3.373-0.888,4.084-2.344l3.977,2.272c-1.525,2.771-4.544,4.617-8.025,4.617C179.24,46.253,175.263,42.168,175.263,36.877 z"></path> <path fill="#444444" d="M204.024,42.098c1.773,0,3.195-0.746,3.978-1.773l3.692,2.13c-1.67,2.414-4.332,3.8-7.742,3.8 c-5.967,0-9.729-4.085-9.729-9.376s3.799-9.375,9.375-9.375c5.256,0,8.984,4.156,8.984,9.375c0,0.676-0.07,1.278-0.18,1.882 h-13.387C199.657,41.103,201.608,42.098,204.024,42.098z M208.002,35.208c-0.567-2.559-2.487-3.586-4.403-3.586 c-2.451,0-4.119,1.312-4.652,3.586H208.002z"></path> <path fill="#444444" d="M221.493,22.672l-1.706,9.661h11.401l-0.322,1.774h-11.362l-1.741,9.872h12.43l-0.318,1.776h-14.312 l4.367-24.859h14.137l-0.287,1.775H221.493z"></path> <path fill="#444444" d="M251.354,27.999l-10.049,17.757h-2.168l-3.8-17.757h1.845l3.27,15.838l8.877-15.838H251.354z"></path> <path fill="#444444" d="M251.457,36.7c1.028-5.789,6.146-9.093,10.974-9.093c4.76,0,8.629,3.729,7.637,9.411 c-1.029,5.896-6.002,9.125-10.797,9.125C254.478,46.144,250.464,42.488,251.457,36.7z M268.289,36.807 c0.817-4.654-2.271-7.493-6.177-7.493c-3.908,0.035-7.992,2.839-8.844,7.563c-0.817,4.723,2.271,7.562,6.181,7.562 C263.39,44.44,267.438,41.6,268.289,36.807z"></path> <path fill="#444444" d="M275.067,34.889l2.666-15.057h1.773l-2.628,15.057l-1.917,10.867h-1.773L275.067,34.889z"></path> <path fill="#444444" d="M297.651,27.999l-10.049,17.757h-2.166l-3.799-17.757h1.846l3.269,15.838l8.877-15.838H297.651z"></path> <path fill="#444444" d="M315.655,36.948c-0.035,0.179-0.105,0.567-0.213,0.853h-16.018c-0.283,4.013,2.236,6.64,6.285,6.64 c2.911,0,5.326-1.276,6.749-3.265l1.383,0.922c-1.739,2.592-5.042,4.047-8.38,4.047c-5.432,0-8.629-4.118-7.671-9.516 c0.924-5.221,5.291-9.021,10.547-9.021C313.772,27.608,316.614,32.013,315.655,36.948z M313.951,36.061 c0.424-4.368-2.025-6.747-5.753-6.747c-4.083,0-7.424,2.699-8.488,6.747H313.951z"></path> </g> <g> <path fill="#444444" d="M322.903,28.724l-0.721,4.076h-0.82l0.724-4.076h-1.423l0.146-0.748h3.615l-0.119,0.748H322.903z M329.081,32.8h-0.797l0.603-3.473l-2.047,2.556h-0.098l-1.086-2.533l-0.604,3.45h-0.819l0.845-4.824h0.817l1.062,2.628 l2.074-2.628h0.892L329.081,32.8z"></path> </g> </g> </svg> 